<svg id="desktop-logo" xmlns="http://www.w3.org/2000/svg" width="66.503" height="59.299" viewBox="0 0 66.503 59.299">
	<g id="Group_1905" data-name="Group 1905" transform="translate(9303 11514)">
	  <path id="Fill_1" data-name="Fill 1" d="M29.461,32.836c.27,2.8.411,4.254-1.859,6.648-2.347,2.474-8.263,7.06-14.318,10.556a61.591,61.591,0,0,1-8.6,4.2c-1.938.7-3.568.994-4.378-.408A2.7,2.7,0,0,1,.31,51.361C2.416,45.654,8.483,35,12.434,28.073q.605-1.063,1.247-2.171C19.764,15.4,27.832,2.553,29.419.494c.229-.3.645-.646,1.033-.422a.749.749,0,0,1,.273.817c-.008.045-.1.422-.138.57-2.614,10.61-2.333,21.009-1.125,31.377" transform="translate(-9303 -11514)" fill="#fff" style="fill: rgb(0, 174, 239);"></path>
	  <path id="Fill_3" data-name="Fill 3" d="M6.811,35.749c-2.558-1.166-3.89-1.771-4.828-4.935C1.014,27.546,0,20.129,0,13.137A61.636,61.636,0,0,1,.666,3.586C1.03,1.558,1.589,0,3.209,0A2.69,2.69,0,0,1,5.343,1.241C9.232,5.918,15.423,16.5,19.45,23.384q.617,1.057,1.255,2.165C26.756,36.066,33.851,49.48,34.842,51.884c.143.348.237.882-.151,1.1a.75.75,0,0,1-.844-.171c-.036-.03-.315-.3-.425-.405C25.541,44.842,16.395,39.886,6.811,35.749" transform="translate(-9271.463 -11513.646)" fill="#fff" style="fill: rgb(0, 174, 239);"></path>
	  <path id="Fill_6" data-name="Fill 6" d="M28.87,2C31.158.368,32.349-.483,35.557.286c3.315.8,10.245,3.625,16.3,7.122A61.608,61.608,0,0,1,59.8,12.76c1.575,1.329,2.645,2.594,1.836,4a2.7,2.7,0,0,1-2.143,1.228c-6,1.03-18.253,1.1-26.229,1.144-.817,0-1.653.007-2.5,0-12.134-.017-27.3-.58-29.875-.923C.508,18.159,0,17.973,0,17.525c0-.363.327-.554.571-.645.045-.016.417-.123.563-.165C11.63,13.674,20.5,8.231,28.87,2" transform="translate(-9300.795 -11473.834)" fill="#fff" style="fill: rgb(0, 174, 239);"></path>
	</g>
  </svg>