<svg xmlns="http://www.w3.org/2000/svg" width="258.5" height="196.823" viewBox="0 0 258.5 196.823">
  <g id="underconstruction" transform="translate(-813.798 -325.846)">
    <g id="Group_1911" data-name="Group 1911" transform="translate(859.085 363.937)">
      <path id="Path_2467" data-name="Path 2467" d="M7937.365,10059.787v52.08" transform="translate(-7904.669 -9977.773)" fill="none" stroke="#449cff" stroke-linecap="round" stroke-width="3"/>
      <path id="Path_2486" data-name="Path 2486" d="M7937.365,10059.787v8.5" transform="translate(-7904.669 -10027.907)" fill="none" stroke="#449cff" stroke-linecap="round" stroke-width="3"/>
      <path id="Path_2487" data-name="Path 2487" d="M7937.365,10059.787v8.5" transform="translate(-7813.296 -10027.907)" fill="none" stroke="#449cff" stroke-linecap="round" stroke-width="3"/>
      <path id="Path_2468" data-name="Path 2468" d="M7937.365,10059.787v52.08" transform="translate(-7813.26 -9977.773)" fill="none" stroke="#449cff" stroke-linecap="round" stroke-width="3"/>
      <path id="Path_2469" data-name="Path 2469" d="M7902.72,10178.424h80.992" transform="translate(-7895.626 -10044.331)" fill="none" stroke="#449cff" stroke-linecap="round" stroke-width="3"/>
      <path id="Path_2483" data-name="Path 2483" d="M7902.72,10178.424h35.5" transform="translate(-7806.934 -10044.331)" fill="none" stroke="#449cff" stroke-linecap="round" stroke-width="3"/>
      <path id="Path_2484" data-name="Path 2484" d="M7902.72,10178.424h3.994" transform="translate(-7763.551 -10044.331)" fill="none" stroke="#449cff" stroke-linecap="round" stroke-width="3"/>
      <path id="Path_164" data-name="Path 164" d="M-151.976,49.086S-11.32,50.831-6.238,47.13.693,28.769.693,28.769V40.928l.776,9.209L-.1,53.244l-14.809-.727s-8.482.028-9.23,0-125.566,1.6-125.566,1.6l-1.151-2.611Z" transform="translate(153.37 28.119)" fill="#e5eff4"/>
      <g id="Rectangle_97" data-name="Rectangle 97" transform="translate(0 40.664)" fill="none" stroke="#449cff" stroke-width="3">
        <rect width="156.372" height="42.168" rx="6" stroke="none"/>
        <rect x="1.5" y="1.5" width="153.372" height="39.168" rx="4.5" fill="none"/>
      </g>
      <g id="Ellipse_105" data-name="Ellipse 105" transform="translate(23.111 13.138)" fill="none" stroke="#449cff" stroke-width="3">
        <ellipse cx="9.371" cy="9.371" rx="9.371" ry="9.371" stroke="none"/>
        <ellipse cx="9.371" cy="9.371" rx="7.871" ry="7.871" fill="none"/>
      </g>
      <g id="Ellipse_106" data-name="Ellipse 106" transform="translate(115.106 13.138)" fill="none" stroke="#449cff" stroke-width="3">
        <ellipse cx="9.371" cy="9.371" rx="9.371" ry="9.371" stroke="none"/>
        <ellipse cx="9.371" cy="9.371" rx="7.871" ry="7.871" fill="none"/>
      </g>
      <path id="Path_2488" data-name="Path 2488" d="M18.745,91.822" transform="translate(-4.106 -20.112)" fill="none" stroke="#707070" stroke-width="1"/>
      <path id="Path_2489" data-name="Path 2489" d="M0,0V23.429" transform="translate(38.442 51.881) rotate(30)" fill="none" stroke="#449cff" stroke-linecap="round" stroke-width="3"/>
      <path id="Path_2490" data-name="Path 2490" d="M0,0V23.429" transform="translate(83.738 51.881) rotate(30)" fill="none" stroke="#449cff" stroke-linecap="round" stroke-width="3"/>
      <path id="Path_2491" data-name="Path 2491" d="M0,0V23.429" transform="translate(129.815 51.881) rotate(30)" fill="none" stroke="#449cff" stroke-linecap="round" stroke-width="3"/>
    </g>
    <g id="Group_1913" data-name="Group 1913" transform="translate(1001.25 454.631)">
      <path id="Path_164-2" data-name="Path 164" d="M-8.914,48.656S24.166,50.8,27.6,46.817s4.312-18.048,4.312-18.048l1.9,11.983,2.187,7.9-.443,3.3-19.245.559s-8.482.028-9.23,0-5.614-.559-5.614-.559h-10.9Z" transform="translate(15.125 5.369)" fill="#e5eff4"/>
      <g id="Path_2479" data-name="Path 2479" transform="translate(-1200.658 -405.646)" fill="none" stroke-linecap="round" stroke-linejoin="round">
        <path d="M1207.068,462.343l12.672-56.7h18.717l12.49,56.7Z" stroke="none"/>
        <path d="M 1250.946044921875 462.3426513671875 L 1238.4560546875 405.6455078125 L 1219.739501953125 405.6455078125 L 1207.067504882813 462.3426513671875 L 1250.946044921875 462.3426513671875 M 1250.946044921875 465.3426513671875 L 1207.067504882813 465.3426513671875 C 1206.156860351563 465.3426513671875 1205.295532226563 464.9290466308594 1204.726196289063 464.2184143066406 C 1204.156860351563 463.5077514648438 1203.941162109375 462.5769653320313 1204.139770507813 461.6882934570313 L 1216.811767578125 404.9911499023438 C 1217.1181640625 403.6202392578125 1218.334838867188 402.6455078125 1219.739501953125 402.6455078125 L 1238.4560546875 402.6455078125 C 1239.8642578125 402.6455078125 1241.082885742188 403.6249084472656 1241.385864257813 405.0001220703125 L 1253.875854492188 461.6972351074219 C 1254.071411132813 462.5849609375 1253.853881835938 463.5134582519531 1253.284423828125 464.2219848632813 C 1252.714965820313 464.9305114746094 1251.85498046875 465.3426513671875 1250.946044921875 465.3426513671875 Z" stroke="none" fill="#449cff"/>
      </g>
      <g id="Rectangle_98" data-name="Rectangle 98" transform="translate(0 56.697)" fill="none" stroke="#449cff" stroke-width="3">
        <rect width="56.697" height="11.339" rx="4" stroke="none"/>
        <rect x="1.5" y="1.5" width="53.697" height="8.339" rx="2.5" fill="none"/>
      </g>
      <path id="Path_2480" data-name="Path 2480" d="M8315.061,9964.972h10.681" transform="translate(-8292.33 -9959.025)" fill="none" stroke="#449cff" stroke-linecap="round" stroke-width="3"/>
      <path id="Path_2485" data-name="Path 2485" d="M8315.061,9964.972h5.2" transform="translate(-8301.054 -9915.852)" fill="none" stroke="#449cff" stroke-linecap="round" stroke-width="3"/>
    </g>
    <g id="Ellipse_102" data-name="Ellipse 102" transform="translate(1039.349 392.556)" fill="none" stroke="#449cff" stroke-width="3">
      <circle cx="7.603" cy="7.603" r="7.603" stroke="none"/>
      <circle cx="7.603" cy="7.603" r="6.103" fill="none"/>
    </g>
    <g id="Path_2492" data-name="Path 2492" transform="translate(813.798 427.117)" fill="#f3f6fd" opacity="0.5">
      <path d="M 3.746838808059692 5.993678569793701 C 2.507928848266602 5.993678569793701 1.499998807907104 4.985748767852783 1.499998807907104 3.746838808059692 C 1.499998807907104 2.507928848266602 2.507928848266602 1.499998807907104 3.746838808059692 1.499998807907104 C 4.985748767852783 1.499998807907104 5.993678569793701 2.507928848266602 5.993678569793701 3.746838808059692 C 5.993678569793701 4.985748767852783 4.985748767852783 5.993678569793701 3.746838808059692 5.993678569793701 Z" stroke="none"/>
      <path d="M 3.746838808059692 2.999999046325684 C 3.335028648376465 2.999999046325684 2.999999046325684 3.335028648376465 2.999999046325684 3.746838808059692 C 2.999999046325684 4.158648490905762 3.335028648376465 4.493679046630859 3.746838808059692 4.493679046630859 C 4.158648490905762 4.493679046630859 4.493679046630859 4.158648490905762 4.493679046630859 3.746838808059692 C 4.493679046630859 3.335028648376465 4.158648490905762 2.999999046325684 3.746838808059692 2.999999046325684 M 3.746838808059692 -9.5367431640625e-07 C 5.816158771514893 -9.5367431640625e-07 7.493678569793701 1.677518844604492 7.493678569793701 3.746838808059692 C 7.493678569793701 5.816158771514893 5.816158771514893 7.493678569793701 3.746838808059692 7.493678569793701 C 1.677518844604492 7.493678569793701 -9.5367431640625e-07 5.816158771514893 -9.5367431640625e-07 3.746838808059692 C -9.5367431640625e-07 1.677518844604492 1.677518844604492 -9.5367431640625e-07 3.746838808059692 -9.5367431640625e-07 Z" stroke="none" fill="#449cff"/>
    </g>
    <g id="Ellipse_104" data-name="Ellipse 104" transform="translate(932.82 368.659)" fill="none" stroke="#449cff" stroke-width="3">
      <circle cx="4.711" cy="4.711" r="4.711" stroke="none"/>
      <circle cx="4.711" cy="4.711" r="3.211" fill="none"/>
    </g>
    <text id="_" data-name="^" fill="#449cff" stroke="#449cff" transform="translate(1059.101 434.661) rotate(30)" stroke-width="1" font-size="15" font-family="Montserrat-Medium, Montserrat" font-weight="500" opacity="0.5"><tspan x="-4.372" y="0">^</tspan></text>
    <text id="_2" data-name="^" transform="matrix(-0.809, 0.588, -0.588, -0.809, 908.35, 333.417)" fill="#449cff" stroke="#449cff" stroke-width="1" font-size="15" font-family="Montserrat-Medium, Montserrat" font-weight="500"><tspan x="-4.372" y="0">^</tspan></text>
    <text id="_3" data-name="^" fill="#449cff" stroke="#449cff" transform="matrix(0.719, -0.695, 0.695, 0.719, 848.68, 477.955)" stroke-width="1" font-size="15" font-family="Montserrat-Medium, Montserrat" font-weight="500" opacity="0.5"><tspan x="-4.372" y="0">^</tspan></text>
    <text id="_4" data-name="*" fill="#449cff" stroke="#449cff" transform="matrix(0.978, 0.208, -0.208, 0.978, 989.917, 349.295)" stroke-width="1" font-size="12" font-family="Montserrat-Medium, Montserrat" font-weight="500" opacity="0.2"><tspan x="-2.4" y="0">*</tspan></text>
    <text id="_5" data-name="*" transform="matrix(0.53, -0.848, 0.848, 0.53, 846.239, 380.609)" fill="#449cff" stroke="#449cff" stroke-width="1" font-size="17" font-family="Montserrat-Medium, Montserrat" font-weight="500"><tspan x="-3.4" y="0">*</tspan></text>
  </g>
</svg>
